<?xml version="1.0" encoding="utf-8"?>
<!-- Generator: Adobe Illustrator 21.0.1, SVG Export Plug-In . SVG Version: 6.00 Build 0)  -->
<svg version="1.1" id="Слой_1" xmlns="http://www.w3.org/2000/svg" xmlns:xlink="http://www.w3.org/1999/xlink" x="0px" y="0px"
	 viewBox="0 0 51.3 56.9" style="enable-background:new 0 0 51.3 56.9;" xml:space="preserve">
<style type="text/css">
	.st0{fill:#FFFFFF;}
</style>
<path class="st0" d="M0.1,54.3c0,0.2,0.1,0.3,0.2,0.5c0,0,0,0,0,0c0.1,0.2,0.2,0.4,0.3,0.5c0,0,0,0,0,0c0.1,0.2,0.2,0.3,0.3,0.4
	c0,0,0,0,0,0c0.3,0.3,0.6,0.5,0.9,0.7c0,0,0,0,0,0c0.9,0.5,2.1,0.5,3.1-0.1l44.6-25.1c2.3-1.3,2.3-4.5,0-5.8L5.2,0.6c0,0,0,0,0,0
	L4.9,0.4C2.7-0.8,0,0.8,0,3.3v0v50.2v0c0,0.2,0,0.4,0.1,0.6C0.1,54.2,0.1,54.3,0.1,54.3z"/>
</svg>
