<?xml version="1.0" encoding="utf-8"?>
<!-- Generator: Adobe Illustrator 21.0.1, SVG Export Plug-In . SVG Version: 6.00 Build 0)  -->
<svg version="1.1" id="Слой_1" xmlns="http://www.w3.org/2000/svg" xmlns:xlink="http://www.w3.org/1999/xlink" x="0px" y="0px"
	 viewBox="0 0 84 56.9" style="enable-background:new 0 0 84 56.9;" xml:space="preserve">
<style type="text/css">
	.st0{fill:#FFFFFF;}
</style>
<g>
	<path class="st0" d="M1.4,31.7l36.5,23.2c0,0,0,0,0,0l0.2,0.1c1.8,1.2,4-0.4,4-2.7l0,0l0,0l0-6.1L42,28.8c0,1.1,0.5,2.1,1.4,2.7
		l36.5,23.2c0,0,0,0,0,0l0.2,0.1c1.8,1.2,4-0.4,4-2.7v0l0,0L83.8,5c0-0.2,0-0.4-0.1-0.6c0,0,0-0.1,0-0.1c0-0.2-0.1-0.3-0.1-0.5
		c0,0,0,0,0,0c-0.1-0.2-0.1-0.3-0.2-0.5c0,0,0,0,0,0c-0.1-0.1-0.2-0.3-0.3-0.4c0,0,0,0,0,0c-0.2-0.3-0.5-0.5-0.8-0.6c0,0,0,0,0,0
		c-0.8-0.4-1.7-0.5-2.5,0.1L43.3,26c-0.9,0.6-1.4,1.7-1.4,2.7L41.8,5.2c0,0,0,0,0,0l0,0c0-0.2,0-0.4-0.1-0.6c0,0,0-0.1,0-0.1
		c0-0.2-0.1-0.3-0.1-0.5c0,0,0,0,0,0c-0.1-0.2-0.1-0.3-0.2-0.5c0,0,0,0,0,0c-0.1-0.1-0.2-0.3-0.3-0.4c0,0,0,0,0,0
		c-0.2-0.3-0.5-0.5-0.8-0.6c0,0,0,0,0,0C39.5,2,38.6,2,37.8,2.5L1.4,26.3C-0.5,27.5-0.5,30.5,1.4,31.7z"/>
</g>
</svg>
