<?xml version="1.0" encoding="utf-8"?>
<!-- Generator: Adobe Illustrator 21.0.1, SVG Export Plug-In . SVG Version: 6.00 Build 0)  -->
<svg version="1.1" id="Слой_1" xmlns="http://www.w3.org/2000/svg" xmlns:xlink="http://www.w3.org/1999/xlink" x="0px" y="0px"
	 viewBox="0 0 84 56.9" style="enable-background:new 0 0 84 56.9;" xml:space="preserve">
<style type="text/css">
	.st0{fill:#FFFFFF;}
</style>
<g>
	<path class="st0" d="M82.6,25.7L46.2,2.4c0,0,0,0,0,0L46,2.3c-1.8-1.2-4,0.4-4,2.7l0,0l0,0l0,6.1l0.1,17.4c0-1.1-0.5-2.1-1.4-2.7
		L4.2,2.7c0,0,0,0,0,0L4,2.5C2.2,1.4,0,2.9,0,5.3v0l0,0l0.3,47.1c0,0.2,0,0.4,0.1,0.6c0,0,0,0.1,0,0.1c0,0.2,0.1,0.3,0.1,0.5
		c0,0,0,0,0,0c0.1,0.2,0.1,0.3,0.2,0.5c0,0,0,0,0,0c0.1,0.1,0.2,0.3,0.3,0.4c0,0,0,0,0,0c0.2,0.3,0.5,0.5,0.8,0.6c0,0,0,0,0,0
		c0.8,0.4,1.7,0.5,2.5-0.1l36.4-23.7c0.9-0.6,1.4-1.7,1.4-2.7l0.1,23.5c0,0,0,0,0,0l0,0c0,0.2,0,0.4,0.1,0.6c0,0,0,0.1,0,0.1
		c0,0.2,0.1,0.3,0.1,0.5c0,0,0,0,0,0c0.1,0.2,0.1,0.3,0.2,0.5c0,0,0,0,0,0c0.1,0.1,0.2,0.3,0.3,0.4c0,0,0,0,0,0
		c0.2,0.3,0.5,0.5,0.8,0.6c0,0,0,0,0,0c0.8,0.4,1.7,0.5,2.5-0.1l36.4-23.7C84.5,29.9,84.5,26.8,82.6,25.7z"/>
</g>
</svg>
